<mxfile host="65bd71144e" pages="2">
    <diagram name="connexion" id="2cc2dc42-3aac-f2a9-1cec-7a8b7cbee084">
        <mxGraphModel dx="1188" dy="1076" grid="1" gridSize="10" guides="1" tooltips="1" connect="1" arrows="1" fold="1" page="1" pageScale="1" pageWidth="1100" pageHeight="850" background="none" math="0" shadow="0">
            <root>
                <mxCell id="0"/>
                <mxCell id="1" parent="0"/>
                <mxCell id="7026571954dc6520-1" value="" style="strokeWidth=1;shadow=0;dashed=0;align=center;html=1;shape=mxgraph.mockup.containers.browserWindow;rSize=0;strokeColor=#666666;mainText=,;recursiveResize=0;rounded=0;labelBackgroundColor=none;fontFamily=Verdana;fontSize=12" parent="1" vertex="1">
                    <mxGeometry x="30" y="20" width="1050" height="970" as="geometry"/>
                </mxCell>
                <mxCell id="7026571954dc6520-2" value="Page 1" style="strokeWidth=1;shadow=0;dashed=0;align=center;html=1;shape=mxgraph.mockup.containers.anchor;fontSize=17;fontColor=#666666;align=left;" parent="7026571954dc6520-1" vertex="1">
                    <mxGeometry x="60" y="12" width="110" height="26" as="geometry"/>
                </mxCell>
                <mxCell id="7026571954dc6520-3" value="https://www.lestigresses.com" style="strokeWidth=1;shadow=0;dashed=0;align=center;html=1;shape=mxgraph.mockup.containers.anchor;rSize=0;fontSize=17;fontColor=#666666;align=left;" parent="7026571954dc6520-1" vertex="1">
                    <mxGeometry x="130" y="60" width="250" height="26" as="geometry"/>
                </mxCell>
                <mxCell id="7026571954dc6520-4" value="Les Tigresses 🐯🐯🐯" style="text;html=1;points=[];align=left;verticalAlign=top;spacingTop=-4;fontSize=30;fontFamily=Verdana" parent="7026571954dc6520-1" vertex="1">
                    <mxGeometry x="390" y="130" width="340" height="50" as="geometry"/>
                </mxCell>
                <mxCell id="7026571954dc6520-14" value="Search" style="strokeWidth=1;shadow=0;dashed=0;align=center;html=1;shape=mxgraph.mockup.forms.searchBox;strokeColor=#999999;mainText=;strokeColor2=#008cff;fontColor=#666666;fontSize=17;align=left;spacingLeft=3;rounded=0;labelBackgroundColor=none;" parent="7026571954dc6520-1" vertex="1">
                    <mxGeometry x="820" y="110" width="220" height="30" as="geometry"/>
                </mxCell>
                <mxCell id="9q2mXrisD4-hRLjnPQLa-1" value="" style="strokeWidth=1;shadow=0;dashed=0;align=center;html=1;shape=mxgraph.mockup.forms.rrect;rSize=0;strokeColor=#999999;fillColor=#ffffff;" parent="7026571954dc6520-1" vertex="1">
                    <mxGeometry x="330" y="280" width="410" height="480" as="geometry"/>
                </mxCell>
                <mxCell id="9q2mXrisD4-hRLjnPQLa-2" value="&lt;font style=&quot;font-size: 18px;&quot;&gt;Sign In&lt;/font&gt;" style="strokeWidth=1;shadow=0;dashed=0;align=center;html=1;shape=mxgraph.mockup.forms.anchor;fontSize=12;fontColor=#666666;align=left;resizeWidth=1;spacingLeft=0;" parent="9q2mXrisD4-hRLjnPQLa-1" vertex="1">
                    <mxGeometry width="204.99999999999997" height="20" relative="1" as="geometry">
                        <mxPoint x="10" y="10" as="offset"/>
                    </mxGeometry>
                </mxCell>
                <mxCell id="9q2mXrisD4-hRLjnPQLa-3" value="" style="shape=line;strokeColor=#ddeeff;strokeWidth=2;html=1;resizeWidth=1;" parent="9q2mXrisD4-hRLjnPQLa-1" vertex="1">
                    <mxGeometry width="368.99999999999994" height="10" relative="1" as="geometry">
                        <mxPoint x="10" y="30" as="offset"/>
                    </mxGeometry>
                </mxCell>
                <mxCell id="9q2mXrisD4-hRLjnPQLa-4" value="&lt;font style=&quot;font-size: 18px;&quot;&gt;User Name:&lt;/font&gt;" style="strokeWidth=1;shadow=0;dashed=0;align=center;html=1;shape=mxgraph.mockup.forms.anchor;fontSize=12;fontColor=#666666;align=left;resizeWidth=1;spacingLeft=0;" parent="9q2mXrisD4-hRLjnPQLa-1" vertex="1">
                    <mxGeometry width="204.99999999999997" height="20" relative="1" as="geometry">
                        <mxPoint x="10" y="50" as="offset"/>
                    </mxGeometry>
                </mxCell>
                <mxCell id="9q2mXrisD4-hRLjnPQLa-5" value="&lt;font style=&quot;font-size: 18px;&quot;&gt;lucas&lt;/font&gt;" style="strokeWidth=1;shadow=0;dashed=0;align=center;html=1;shape=mxgraph.mockup.forms.rrect;rSize=0;strokeColor=#999999;fontColor=#666666;align=left;spacingLeft=5;resizeWidth=1;" parent="9q2mXrisD4-hRLjnPQLa-1" vertex="1">
                    <mxGeometry width="307.5" height="40" relative="1" as="geometry">
                        <mxPoint x="10" y="85" as="offset"/>
                    </mxGeometry>
                </mxCell>
                <mxCell id="9q2mXrisD4-hRLjnPQLa-6" value="&lt;font style=&quot;font-size: 18px;&quot;&gt;Password:&lt;/font&gt;" style="strokeWidth=1;shadow=0;dashed=0;align=center;html=1;shape=mxgraph.mockup.forms.anchor;fontSize=12;fontColor=#666666;align=left;resizeWidth=1;spacingLeft=0;" parent="9q2mXrisD4-hRLjnPQLa-1" vertex="1">
                    <mxGeometry width="204.99999999999997" height="20" relative="1" as="geometry">
                        <mxPoint x="10" y="160" as="offset"/>
                    </mxGeometry>
                </mxCell>
                <mxCell id="9q2mXrisD4-hRLjnPQLa-7" value="********" style="strokeWidth=1;shadow=0;dashed=0;align=center;html=1;shape=mxgraph.mockup.forms.rrect;rSize=0;strokeColor=#999999;fontColor=#666666;align=left;spacingLeft=5;resizeWidth=1;" parent="9q2mXrisD4-hRLjnPQLa-1" vertex="1">
                    <mxGeometry width="307.5" height="50" relative="1" as="geometry">
                        <mxPoint x="10" y="200" as="offset"/>
                    </mxGeometry>
                </mxCell>
                <mxCell id="9q2mXrisD4-hRLjnPQLa-8" value="SIGN IN" style="strokeWidth=1;shadow=0;dashed=0;align=center;html=1;shape=mxgraph.mockup.forms.rrect;rSize=5;strokeColor=none;fontColor=#ffffff;fillColor=#66bbff;fontSize=16;fontStyle=1;" parent="9q2mXrisD4-hRLjnPQLa-1" vertex="1">
                    <mxGeometry y="1" width="100" height="41" relative="1" as="geometry">
                        <mxPoint x="10" y="-170" as="offset"/>
                    </mxGeometry>
                </mxCell>
                <mxCell id="9q2mXrisD4-hRLjnPQLa-9" value="Forgot Password?" style="strokeWidth=1;shadow=0;dashed=0;align=center;html=1;shape=mxgraph.mockup.forms.anchor;fontSize=12;fontColor=#9999ff;align=left;spacingLeft=0;fontStyle=4;resizeWidth=1;" parent="9q2mXrisD4-hRLjnPQLa-1" vertex="1">
                    <mxGeometry y="1" width="307.5" height="20" relative="1" as="geometry">
                        <mxPoint x="10" y="-110" as="offset"/>
                    </mxGeometry>
                </mxCell>
                <mxCell id="9q2mXrisD4-hRLjnPQLa-10" value="" style="shape=line;strokeColor=#ddeeff;strokeWidth=2;html=1;resizeWidth=1;" parent="9q2mXrisD4-hRLjnPQLa-1" vertex="1">
                    <mxGeometry y="1" width="368.99999999999994" height="10" relative="1" as="geometry">
                        <mxPoint x="10" y="-90" as="offset"/>
                    </mxGeometry>
                </mxCell>
                <mxCell id="9q2mXrisD4-hRLjnPQLa-11" value="&lt;font style=&quot;font-size: 18px;&quot;&gt;New User&lt;/font&gt;" style="strokeWidth=1;shadow=0;dashed=0;align=center;html=1;shape=mxgraph.mockup.forms.anchor;fontSize=12;fontColor=#666666;align=left;spacingLeft=0;resizeWidth=1;" parent="9q2mXrisD4-hRLjnPQLa-1" vertex="1">
                    <mxGeometry y="1" width="307.5" height="20" relative="1" as="geometry">
                        <mxPoint x="10" y="-70" as="offset"/>
                    </mxGeometry>
                </mxCell>
                <UserObject label="SIGN UP" link="data:page/id,gsWJVwNDRams3cpelaSN" id="9q2mXrisD4-hRLjnPQLa-12">
                    <mxCell style="strokeWidth=1;shadow=0;dashed=0;align=center;html=1;shape=mxgraph.mockup.forms.rrect;rSize=5;strokeColor=none;fontColor=#ffffff;fillColor=#66bbff;fontSize=16;fontStyle=1;" parent="9q2mXrisD4-hRLjnPQLa-1" vertex="1">
                        <mxGeometry y="1" width="110" height="41" relative="1" as="geometry">
                            <mxPoint x="165" y="-61" as="offset"/>
                        </mxGeometry>
                    </mxCell>
                </UserObject>
            </root>
        </mxGraphModel>
    </diagram>
    <diagram id="gsWJVwNDRams3cpelaSN" name="inscription">
        <mxGraphModel dx="1188" dy="1076" grid="1" gridSize="10" guides="1" tooltips="1" connect="1" arrows="1" fold="1" page="1" pageScale="1" pageWidth="827" pageHeight="1169" math="0" shadow="0">
            <root>
                <mxCell id="0"/>
                <mxCell id="1" parent="0"/>
                <mxCell id="IYFMl6uomr6WDHYkJZse-1" value="" style="strokeWidth=1;shadow=0;dashed=0;align=center;html=1;shape=mxgraph.mockup.containers.browserWindow;rSize=0;strokeColor=#FFFF99;mainText=,;recursiveResize=0;rounded=0;labelBackgroundColor=none;fontFamily=Verdana;fontSize=12" parent="1" vertex="1">
                    <mxGeometry x="200" y="50" width="1190" height="990" as="geometry"/>
                </mxCell>
                <mxCell id="IYFMl6uomr6WDHYkJZse-2" value="Page 1" style="strokeWidth=1;shadow=0;dashed=0;align=center;html=1;shape=mxgraph.mockup.containers.anchor;fontSize=17;fontColor=#666666;align=left;" parent="IYFMl6uomr6WDHYkJZse-1" vertex="1">
                    <mxGeometry x="60" y="12" width="110" height="26" as="geometry"/>
                </mxCell>
                <mxCell id="IYFMl6uomr6WDHYkJZse-3" value="https://www.lestigresses.com" style="strokeWidth=1;shadow=0;dashed=0;align=center;html=1;shape=mxgraph.mockup.containers.anchor;rSize=0;fontSize=17;fontColor=#666666;align=left;" parent="IYFMl6uomr6WDHYkJZse-1" vertex="1">
                    <mxGeometry x="130" y="60" width="250" height="26" as="geometry"/>
                </mxCell>
                <mxCell id="IYFMl6uomr6WDHYkJZse-4" value="Les Tigresses 🐯🐯🐯" style="text;html=1;points=[];align=left;verticalAlign=top;spacingTop=-4;fontSize=30;fontFamily=Verdana" parent="IYFMl6uomr6WDHYkJZse-1" vertex="1">
                    <mxGeometry x="390" y="130" width="340" height="50" as="geometry"/>
                </mxCell>
                <mxCell id="IYFMl6uomr6WDHYkJZse-5" value="Search" style="strokeWidth=1;shadow=0;dashed=0;align=center;html=1;shape=mxgraph.mockup.forms.searchBox;strokeColor=#999999;mainText=;strokeColor2=#008cff;fontColor=#666666;fontSize=17;align=left;spacingLeft=3;rounded=0;labelBackgroundColor=none;" parent="IYFMl6uomr6WDHYkJZse-1" vertex="1">
                    <mxGeometry x="970" y="120" width="220" height="30" as="geometry"/>
                </mxCell>
                <mxCell id="IYFMl6uomr6WDHYkJZse-18" value="First name" style="html=1;shadow=0;dashed=0;shape=mxgraph.bootstrap.rrect;rSize=5;fillColor=none;strokeColor=#999999;align=left;spacing=15;fontSize=14;fontColor=#6C767D;" parent="IYFMl6uomr6WDHYkJZse-1" vertex="1">
                    <mxGeometry x="170" y="380" width="390" height="30" as="geometry"/>
                </mxCell>
                <mxCell id="IYFMl6uomr6WDHYkJZse-19" value="Last name" style="html=1;shadow=0;dashed=0;shape=mxgraph.bootstrap.rrect;rSize=5;fillColor=none;strokeColor=#999999;align=left;spacing=15;fontSize=14;fontColor=#6C767D;" parent="IYFMl6uomr6WDHYkJZse-1" vertex="1">
                    <mxGeometry x="580" y="380" width="390" height="30" as="geometry"/>
                </mxCell>
                <mxCell id="IYFMl6uomr6WDHYkJZse-20" value="Phone" style="html=1;shadow=0;dashed=0;shape=mxgraph.bootstrap.rrect;rSize=5;fillColor=none;strokeColor=#999999;align=left;spacing=15;fontSize=14;fontColor=#6C767D;" parent="IYFMl6uomr6WDHYkJZse-1" vertex="1">
                    <mxGeometry x="580" y="500" width="390" height="30" as="geometry"/>
                </mxCell>
                <mxCell id="IYFMl6uomr6WDHYkJZse-21" value="Email" style="html=1;shadow=0;dashed=0;shape=mxgraph.bootstrap.rrect;rSize=5;fillColor=none;strokeColor=#999999;align=left;spacing=15;fontSize=14;fontColor=#6C767D;" parent="IYFMl6uomr6WDHYkJZse-1" vertex="1">
                    <mxGeometry x="170" y="565" width="810" height="45" as="geometry"/>
                </mxCell>
                <mxCell id="IYFMl6uomr6WDHYkJZse-22" value="XX/XX/XXXX" style="html=1;shadow=0;dashed=0;shape=mxgraph.bootstrap.rrect;rSize=5;fillColor=none;strokeColor=#999999;align=left;spacing=15;fontSize=14;fontColor=#6C767D;" parent="IYFMl6uomr6WDHYkJZse-1" vertex="1">
                    <mxGeometry x="170" y="500" width="390" height="30" as="geometry"/>
                </mxCell>
                <mxCell id="IYFMl6uomr6WDHYkJZse-23" value="Sexe" style="html=1;shadow=0;dashed=0;shape=mxgraph.bootstrap.rrect;rSize=5;fillColor=none;strokeColor=#999999;align=left;spacing=15;fontSize=14;fontColor=#6C767D;" parent="IYFMl6uomr6WDHYkJZse-1" vertex="1">
                    <mxGeometry x="170" y="440" width="390" height="30" as="geometry"/>
                </mxCell>
                <mxCell id="IYFMl6uomr6WDHYkJZse-24" value="CREATE" style="strokeWidth=1;shadow=0;dashed=0;align=center;html=1;shape=mxgraph.mockup.forms.rrect;rSize=5;strokeColor=none;fontColor=#ffffff;fillColor=#66bbff;fontSize=16;fontStyle=1;" parent="IYFMl6uomr6WDHYkJZse-1" vertex="1">
                    <mxGeometry x="470" y="730" width="140" height="50" as="geometry"/>
                </mxCell>
                <mxCell id="IYFMl6uomr6WDHYkJZse-25" value="Work" style="html=1;shadow=0;dashed=0;shape=mxgraph.bootstrap.rrect;rSize=5;fillColor=none;strokeColor=#999999;align=left;spacing=15;fontSize=14;fontColor=#6C767D;" parent="IYFMl6uomr6WDHYkJZse-1" vertex="1">
                    <mxGeometry x="580" y="440" width="390" height="30" as="geometry"/>
                </mxCell>
                <mxCell id="IYFMl6uomr6WDHYkJZse-26" value="&lt;h3&gt;&lt;font style=&quot;font-size: 24px;&quot;&gt;&lt;b&gt;Sign UP&lt;/b&gt;&lt;/font&gt;&lt;/h3&gt;" style="html=1;shadow=0;dashed=0;shape=mxgraph.bootstrap.rrect;rSize=5;fillColor=none;strokeColor=#999999;align=center;spacing=15;fontSize=14;fontColor=#6C767D;" parent="IYFMl6uomr6WDHYkJZse-1" vertex="1">
                    <mxGeometry x="458.75" y="210" width="182.5" height="40" as="geometry"/>
                </mxCell>
            </root>
        </mxGraphModel>
    </diagram>
</mxfile>